<?xml version="1.0" standalone="no"?><!DOCTYPE svg PUBLIC "-//W3C//DTD SVG 1.1//EN" "http://www.w3.org/Graphics/SVG/1.1/DTD/svg11.dtd"><svg t="1566219649147" class="icon" viewBox="0 0 1024 1024" version="1.1" xmlns="http://www.w3.org/2000/svg" p-id="728" xmlns:xlink="http://www.w3.org/1999/xlink" width="128" height="128"><defs><style type="text/css"></style></defs><path d="M511.843434 512m-446.708971 0a446.708971 446.708971 0 1 0 893.417942 0 446.708971 446.708971 0 1 0-893.417942 0Z" fill="#FFFFFF" p-id="729"></path><path d="M424.111301 818.825061c-59.328223 0-115.140367-23.107277-157.101038-65.081251-86.620823-86.620823-86.620823-227.581252 0-314.215378 41.960671-41.973974 97.771791-65.081251 157.101038-65.081251 59.355853 0 115.140367 23.12058 157.101037 65.081251 41.960671 41.973974 65.081251 97.771791 65.081251 157.11434s-23.12058 115.140367-65.081251 157.101038-97.745185 65.081251-157.101037 65.081251z m0-360.620268c-36.97103 0-71.733765 14.409175-97.881285 40.543392-53.957913 53.984518-53.957913 141.804656 0 195.775872 26.14752 26.14752 60.910255 40.543392 97.881285 40.543391s71.733765-14.395872 97.881284-40.543391c26.14752-26.14752 40.543392-60.910255 40.543392-97.881285s-14.395872-71.733765-40.543392-97.894587c-26.146497-26.14752-60.909232-40.543392-97.881284-40.543392z" fill="#75B9EB" p-id="730"></path><path d="M551.602973 511.016603c-10.715039 0-21.430078-4.090155-29.609365-12.269442-16.358573-16.358573-16.358573-42.874483 0-59.219753L672.577209 288.943808h-42.833551c-23.12058 0-41.878806-18.744923-41.878806-41.878806s18.758226-41.878806 41.878806-41.878806h143.958716c16.931624 0 32.200376 10.210549 38.689161 25.847691 6.488785 15.650445 2.889817 33.67189-9.078773 45.641503L581.212338 498.747161c-8.179286 8.179286-18.894326 12.269441-29.609365 12.269442z" fill="#75B9EB" p-id="731"></path><path d="M773.703397 288.943808h-143.958716c-23.12058 0-41.878806-18.744923-41.878806-41.878806s18.758226-41.878806 41.878806-41.878806h143.958716c23.12058 0 41.878806 18.744923 41.878806 41.878806s-18.758226 41.878806-41.878806 41.878806z" fill="#75B9EB" p-id="732"></path><path d="M779.864724 439.050548c-23.12058 0-41.878806-18.744923-41.878806-41.878806V253.226329c0-23.133883 18.758226-41.878806 41.878806-41.878807s41.878806 18.744923 41.878806 41.878807v143.945413c0 23.133883-18.758226 41.878806-41.878806 41.878806z" fill="#75B9EB" p-id="733"></path><path d="M779.864724 439.050548c-23.12058 0-41.878806-18.744923-41.878806-41.878806V253.226329c0-23.133883 18.758226-41.878806 41.878806-41.878807s41.878806 18.744923 41.878806 41.878807v143.945413c0 23.133883-18.758226 41.878806-41.878806 41.878806z" fill="#75B9EB" p-id="734"></path></svg>