<?xml version="1.0" standalone="no"?><!DOCTYPE svg PUBLIC "-//W3C//DTD SVG 1.1//EN" "http://www.w3.org/Graphics/SVG/1.1/DTD/svg11.dtd"><svg t="1566999821293" class="icon" viewBox="0 0 1024 1024" version="1.1" xmlns="http://www.w3.org/2000/svg" p-id="3904" xmlns:xlink="http://www.w3.org/1999/xlink" width="128" height="128"><defs><style type="text/css"></style></defs><path d="M806.482 873.69H454.533c-35.122 0-85.435-44.616-85.435-75.79V487.176a19.104 19.104 0 0 1 9.759-16.646c70.203-39.255 105.731-108.935 142.789-215.788V152.359c0-3.463 0.93-6.85 2.719-9.832 11.582-19.291 31.173-30.354 53.742-30.354 27.783 0 55.94 16.165 77.278 44.356 38.362 50.727 47.858 130.464 27.001 221.376h160.668c35.72 0 116.944 36.794 116.944 97.352 0 20-2.346 50.43-15.045 68.193 10.019 27.97 11.919 73.258-18.771 105.175 2.532 53.854-11.06 92.998-39.624 114.412-0.484 28.493-13.634 63.353-33.336 85.923-14.113 16.164-30.275 24.73-46.74 24.73z" fill="#EEEEEE" p-id="3905"></path><path d="M944.955 543.453C957.654 525.688 960 495.258 960 475.259c0-31.764-22.383-56.903-48.789-73.712 0.469 3.184 0.809 6.411 0.809 9.739 0 19.999-2.346 50.429-15.045 68.193 10.019 27.97 11.919 73.257-18.771 105.174 2.532 53.854-11.06 92.999-39.624 114.413-0.484 28.491-13.634 63.353-33.336 85.922-14.115 16.164-30.277 24.73-46.741 24.73H406.554c-11.619 0-24.883-4.945-37.455-12.609v0.79c0 31.172 50.313 75.79 85.435 75.79h351.949c16.464 0 32.626-8.566 46.741-24.728 19.702-22.57 32.852-57.43 33.336-85.923 28.564-21.414 42.157-60.558 39.624-114.412 30.689-31.916 28.789-77.205 18.771-105.173zM623.365 377.906h57.752c10.543-51.206 31.986-119.177-25.73-221.376-6.739-11.932-17.581-19.988-27.482-27.061 20.275 48.953 11.821 177.125-4.54 248.437z" fill="" p-id="3906"></path><path d="M340.346 911.827H130.889C94.018 911.827 64 881.848 64 844.976V444.757c0-36.872 30.018-66.85 66.889-66.85h209.456c36.872 0 66.889 29.979 66.889 66.85v400.219c0.001 36.872-30.016 66.851-66.888 66.851z" fill="#2577FF" p-id="3907"></path><path d="M349.681 378.848c5.939 9.981 9.575 21.489 9.575 33.922v400.22c0 36.87-30.018 66.851-66.89 66.851H82.91c-3.197 0-6.257-0.508-9.335-0.944 11.672 19.619 32.876 32.93 57.314 32.93h209.456c36.871 0 66.889-29.979 66.889-66.851V444.757c0.001-33.675-25.123-61.318-57.553-65.909z" fill="" p-id="3908"></path></svg>