<?xml version="1.0" standalone="no"?><!DOCTYPE svg PUBLIC "-//W3C//DTD SVG 1.1//EN" "http://www.w3.org/Graphics/SVG/1.1/DTD/svg11.dtd"><svg t="1566999935641" class="icon" viewBox="0 0 1024 1024" version="1.1" xmlns="http://www.w3.org/2000/svg" p-id="4830" xmlns:xlink="http://www.w3.org/1999/xlink" width="128" height="128"><defs><style type="text/css"></style></defs><path d="M184.32 891.667692c-12.603077 0-25.206154-2.363077-37.809231-7.876923-37.021538-14.966154-59.864615-49.624615-59.864615-89.009231v-275.692307c0-212.676923 173.292308-385.969231 385.969231-385.969231h78.76923c212.676923 0 385.969231 173.292308 385.969231 385.969231 0 169.353846-137.846154 307.2-307.2 307.2H289.083077l-37.021539 37.021538c-18.904615 18.116923-43.323077 28.356923-67.741538 28.356923zM472.615385 195.347692c-178.018462 0-322.953846 144.935385-322.953847 322.953846v275.692308c0 21.267692 15.753846 29.144615 20.48 31.507692 4.726154 2.363077 22.055385 7.876923 37.021539-7.08923l46.473846-46.473846c6.301538-6.301538 14.178462-9.452308 22.055385-9.452308h354.461538c134.695385 0 244.184615-109.489231 244.184616-244.184616 0-178.018462-144.935385-322.953846-322.953847-322.953846H472.615385z" fill="#7F7F7F" p-id="4831"></path><path d="M321.378462 512m-59.076924 0a59.076923 59.076923 0 1 0 118.153847 0 59.076923 59.076923 0 1 0-118.153847 0Z" fill="#BFBFBF" p-id="4832"></path><path d="M518.301538 512m-59.076923 0a59.076923 59.076923 0 1 0 118.153847 0 59.076923 59.076923 0 1 0-118.153847 0Z" fill="#BFBFBF" p-id="4833"></path><path d="M715.224615 512m-59.076923 0a59.076923 59.076923 0 1 0 118.153846 0 59.076923 59.076923 0 1 0-118.153846 0Z" fill="#BFBFBF" p-id="4834"></path></svg>