<?xml version="1.0" standalone="no"?><!DOCTYPE svg PUBLIC "-//W3C//DTD SVG 1.1//EN" "http://www.w3.org/Graphics/SVG/1.1/DTD/svg11.dtd"><svg t="1567661551521" class="icon" viewBox="0 0 1024 1024" version="1.1" xmlns="http://www.w3.org/2000/svg" p-id="1444" xmlns:xlink="http://www.w3.org/1999/xlink" width="128" height="128"><defs><style type="text/css"></style></defs><path d="M832 832c0 32-32 64-64 64H256c-32 0-64-32-64-64V192H128v640c0 70.4 57.6 128 128 128h512c70.4 0 128-57.6 128-128V192h-64v640zM96 128h832v64h-832z" fill="#333333" p-id="1445"></path><path d="M96 160m-32 0a32 32 0 1 0 64 0 32 32 0 1 0-64 0Z" fill="#333333" p-id="1446"></path><path d="M416 352m-32 0a32 32 0 1 0 64 0 32 32 0 1 0-64 0Z" fill="#333333" p-id="1447"></path><path d="M416 736m-32 0a32 32 0 1 0 64 0 32 32 0 1 0-64 0Z" fill="#333333" p-id="1448"></path><path d="M928 160m-32 0a32 32 0 1 0 64 0 32 32 0 1 0-64 0Z" fill="#333333" p-id="1449"></path><path d="M576 192H448c-38.4 0-64-25.6-64-64s25.6-64 64-64h128c38.4 0 64 25.6 64 64s-25.6 64-64 64zM384 352h64v384H384z" fill="#333333" p-id="1450"></path><path d="M608 352m-32 0a32 32 0 1 0 64 0 32 32 0 1 0-64 0Z" fill="#333333" p-id="1451"></path><path d="M608 736m-32 0a32 32 0 1 0 64 0 32 32 0 1 0-64 0Z" fill="#333333" p-id="1452"></path><path d="M576 352h64v384H576z" fill="#333333" p-id="1453"></path></svg>