<?xml version="1.0" standalone="no"?><!DOCTYPE svg PUBLIC "-//W3C//DTD SVG 1.1//EN" "http://www.w3.org/Graphics/SVG/1.1/DTD/svg11.dtd"><svg t="1566314585495" class="icon" viewBox="0 0 1024 1024" version="1.1" xmlns="http://www.w3.org/2000/svg" p-id="1252" xmlns:xlink="http://www.w3.org/1999/xlink" width="128" height="128"><defs><style type="text/css"></style></defs><path d="M270.933333 810.666667c-36.266667 0-64-27.733333-64-64v-2.133334l6.4-164.266666c2.133333-32 14.933333-61.866667 38.4-85.333334L612.266667 136.533333c74.666667-74.666667 196.266667-74.666667 270.933333 0s74.666667 196.266667 0 270.933334L524.8 765.866667c-23.466667 23.466667-53.333333 36.266667-85.333333 38.4l-164.266667 6.4h-4.266667zM746.666667 164.266667c-27.733333 0-55.466667 10.666667-74.666667 32L313.6 554.666667c-8.533333 8.533333-12.8 17.066667-12.8 27.733333l-6.4 142.933333 140.8-6.4c10.666667 0 21.333333-4.266667 27.733333-12.8l358.4-358.4c42.666667-42.666667 42.666667-108.8 0-151.466666-19.2-19.2-46.933333-32-74.666666-32zM853.333333 938.666667H170.666667c-23.466667 0-42.666667-19.2-42.666667-42.666667s19.2-42.666667 42.666667-42.666667h682.666666c23.466667 0 42.666667 19.2 42.666667 42.666667s-19.2 42.666667-42.666667 42.666667z" fill="#4E4E4E" p-id="1253"></path><path d="M731.733333 285.866667m-64 0a64 64 0 1 0 128 0 64 64 0 1 0-128 0Z" fill="#FF9813" p-id="1254"></path></svg>