<?xml version="1.0" standalone="no"?><!DOCTYPE svg PUBLIC "-//W3C//DTD SVG 1.1//EN" "http://www.w3.org/Graphics/SVG/1.1/DTD/svg11.dtd"><svg t="1565872456285" class="icon" viewBox="0 0 1024 1024" version="1.1" xmlns="http://www.w3.org/2000/svg" p-id="1465" xmlns:xlink="http://www.w3.org/1999/xlink" width="128" height="128"><defs><style type="text/css"></style></defs><path d="M644.48 842.666667H379.52a42.666667 42.666667 0 0 1-42.666667-42.666667V688.64a310.08 310.08 0 1 1 350.08 0V800a42.666667 42.666667 0 0 1-42.453333 42.666667zM512 144a288.746667 288.746667 0 0 0-158.506667 530.133333l4.8 3.093334V800a21.333333 21.333333 0 0 0 21.333334 21.333333h264.853333a21.333333 21.333333 0 0 0 21.333333-21.333333V677.226667l4.8-3.093334A288.746667 288.746667 0 0 0 512 144z" fill="#4D4D4D" p-id="1466"></path><path d="M597.333333 896H426.666667a32 32 0 0 1-32-32v-95.146667A43.52 43.52 0 0 1 438.186667 725.333333h147.626666A43.52 43.52 0 0 1 629.333333 768.853333V864a32 32 0 0 1-32 32zM438.186667 746.666667A22.186667 22.186667 0 0 0 416 768.853333V864a10.666667 10.666667 0 0 0 10.666667 10.666667h170.666666a10.666667 10.666667 0 0 0 10.666667-10.666667v-95.146667A22.186667 22.186667 0 0 0 585.813333 746.666667z" fill="#4D4D4D" p-id="1467"></path><path d="M501.333333 405.333333v234.666667a10.666667 10.666667 0 0 0 21.333334 0V405.333333a10.666667 10.666667 0 0 0-21.333334 0z" fill="#00A99D" p-id="1468"></path></svg>