<?xml version="1.0" standalone="no"?><!DOCTYPE svg PUBLIC "-//W3C//DTD SVG 1.1//EN" "http://www.w3.org/Graphics/SVG/1.1/DTD/svg11.dtd"><svg t="1567427687773" class="icon" viewBox="0 0 1024 1024" version="1.1" xmlns="http://www.w3.org/2000/svg" p-id="1331" xmlns:xlink="http://www.w3.org/1999/xlink" width="128" height="128"><defs><style type="text/css"></style></defs><path d="M606.208 90.112c0.512-16.384-2.56-32.768-4.608-49.152 26.112 31.744 31.232 76.288 17.408 114.176-18.432 52.736-59.392 92.672-100.864 128C483.84 310.272 448 340.992 435.2 384.512c-8.704 31.232 3.584 63.488 19.968 90.112 17.408 28.672 39.936 54.272 53.76 84.992-33.792-29.696-66.56-60.416-94.208-96.768-16.896-23.552-33.28-50.688-31.744-80.896 0.512-26.624 17.92-48.64 35.328-67.584 47.104-49.152 109.056-82.432 152.576-135.68 20.48-25.088 34.816-55.808 35.328-88.576z" fill="#D32024" p-id="1332"></path><path d="M577.024 296.96c42.496-28.16 90.112-49.152 139.776-61.44-45.056 29.184-93.184 55.296-130.56 94.72-15.36 16.896-28.16 39.936-22.016 63.488 8.192 28.672 30.208 49.664 44.032 75.264 10.24 19.456 8.704 43.52-2.56 61.952-15.872 26.624-41.472 46.592-68.608 61.44 16.384-15.872 31.744-35.84 30.72-59.904 0.512-19.456-13.312-34.816-24.576-49.152-23.04-28.16-39.936-65.024-32.256-101.888 7.68-36.352 36.352-64 66.048-84.48z" fill="#D32024" p-id="1333"></path><path d="M722.944 569.344c13.312-15.36 35.328-17.92 54.784-18.432 28.672 0 58.368 14.848 70.144 41.984 11.264 24.064 3.584 52.736-12.8 72.192C802.304 705.024 751.104 721.92 704 737.28c0.512-1.536 1.024-4.096 1.024-5.632 31.744-15.36 62.464-35.328 86.016-61.952 14.336-16.896 26.112-38.912 22.016-61.44-5.12-28.16-34.816-48.128-62.976-45.056-9.216 1.536-17.92 4.096-27.136 6.144z m-453.12 17.408c41.472-16.896 86.528-28.16 131.584-27.136-29.184 9.728-59.904 14.848-86.528 30.208-5.12 3.072-9.216 7.68-13.312 11.776 10.752 9.728 25.6 12.288 39.424 13.824 64.512 6.656 130.048 3.584 194.56 0 51.2-3.584 102.4-9.216 153.088-17.92 6.656-1.024 13.312-1.024 19.968-1.024-18.432 5.12-33.792 17.92-51.712 24.064C572.928 640 486.4 644.096 400.384 643.584c-43.52-2.048-88.064-2.56-130.56-12.8-13.312-3.584-28.16-6.656-36.352-18.432 8.192-14.336 23.04-19.456 36.352-25.6z m42.496 108.032c10.752-15.36 30.72-21.504 47.616-27.648-4.608 6.144-9.216 12.8-13.312 19.968 5.632 9.728 16.384 13.312 26.624 14.848 28.16 4.608 56.832 4.608 85.504 6.656 58.368 1.024 116.736-7.168 174.592-16.896 11.776 9.728 25.088 17.92 39.424 23.552-88.064 24.576-180.736 34.816-271.872 24.576-27.136-3.584-55.296-7.68-79.36-22.016-6.656-5.12-15.872-14.336-9.216-23.04z m33.28 91.648c11.264-8.704 24.576-12.8 37.888-17.408-3.584 3.584-6.656 7.68-10.24 11.264 2.048 9.728 11.776 13.312 20.48 14.848 62.464 10.24 126.976 10.24 188.928-2.048 9.216-1.024 19.456-5.12 28.16 0 14.848 8.192 29.696 16.384 46.08 21.504-57.344 25.6-120.832 35.328-183.296 32.768-32.256-0.512-65.024-5.12-95.744-15.872-14.848-5.632-31.232-12.8-38.912-27.648-2.048-6.656 1.536-13.312 6.656-17.408z" fill="#1469AA" p-id="1334"></path><path d="M197.12 860.16c35.84-14.848 76.288-28.672 115.2-18.432-28.16 5.12-57.856 9.216-82.432 24.576-4.608 3.072-10.752 7.168-9.216 13.312 4.608 4.608 10.752 7.168 16.384 9.216 32.768 11.776 67.584 15.36 102.4 18.944 92.16 7.168 184.832 6.144 276.992-0.512 50.688-5.12 101.888-8.704 151.04-23.04 13.312-3.584 26.112-10.752 34.304-22.016-2.048-5.632-4.096-10.752-5.632-16.384 8.192 4.608 15.36 10.752 18.944 19.456-4.608 8.704-10.752 15.872-19.456 20.48-34.304 19.456-73.216 27.136-111.104 34.816-87.552 15.36-176.64 19.968-265.216 17.408-74.752-3.072-149.504-9.216-222.72-23.04-13.312-3.584-32.256-6.656-35.328-22.528 3.072-17.408 21.504-24.576 35.84-32.256z" fill="#1469AA" p-id="1335"></path><path d="M828.416 913.408C838.144 908.8 844.8 900.096 855.04 896c-10.752 33.792-46.592 48.128-77.312 57.856-66.56 19.968-136.192 24.576-205.312 28.672-59.904 1.536-119.808 1.024-179.2-4.096-36.864-4.096-74.752-7.68-109.056-22.528 11.776-0.512 23.04 2.048 34.816 3.584 55.296 7.168 111.616 8.704 166.912 8.704 72.192-0.512 144.384-5.632 215.552-17.408 43.52-8.704 87.552-17.92 126.976-37.376z" fill="#1469AA" p-id="1336"></path></svg>