<?xml version="1.0" standalone="no"?><!DOCTYPE svg PUBLIC "-//W3C//DTD SVG 1.1//EN" "http://www.w3.org/Graphics/SVG/1.1/DTD/svg11.dtd"><svg t="1565801564499" class="icon" viewBox="0 0 1024 1024" version="1.1" xmlns="http://www.w3.org/2000/svg" p-id="3631" xmlns:xlink="http://www.w3.org/1999/xlink" width="128" height="128"><defs><style type="text/css"></style></defs><path d="M769.7 659h-60V494.6c0-110.7-90.1-200.8-200.8-200.8-110.7 0-200.8 90.1-200.8 200.8V659h-60V494.6c0-69.4 27.2-134.8 76.6-184.2s114.8-76.6 184.2-76.6 134.8 27.2 184.2 76.6c49.4 49.4 76.6 114.8 76.6 184.2V659z" fill="#8a8a8a" p-id="3632"></path><path d="M508.9 287.7c-47.6 0-86.3-38.7-86.3-86.3s38.7-86.3 86.3-86.3 86.3 38.7 86.3 86.3-38.7 86.3-86.3 86.3z m0-112.7c-14.5 0-26.3 11.8-26.3 26.3s11.8 26.3 26.3 26.3 26.3-11.8 26.3-26.3-11.8-26.3-26.3-26.3z" fill="#8a8a8a" p-id="3633"></path><path d="M610.5 732.4c7.4 15.1 11.6 32.1 11.6 50 0 62.6-50.7 113.3-113.3 113.3S395.5 845 395.5 782.4c0-17.2 3.8-33.6 10.7-48.2" fill="#8a8a8a" p-id="3634"></path><path d="M508.9 925.6c-79 0-143.3-64.3-143.3-143.3 0-21.3 4.6-41.8 13.6-60.9l54.3 25.5c-5.2 11.1-7.9 23-7.9 35.4 0 45.9 37.4 83.3 83.3 83.3s83.3-37.4 83.3-83.3c0-12.9-2.9-25.3-8.5-36.7l53.8-26.5c9.8 19.8 14.7 41.1 14.7 63.3-0.1 79-64.3 143.2-143.3 143.2z" fill="#8a8a8a" p-id="3635"></path><path d="M771.9 776.3H245.8c-38.9 0-70.5-31.6-70.5-70.5s31.6-70.5 70.5-70.5H279c16.6 0 30 13.4 30 30s-13.4 30-30 30h-33.1c-5.7 0-10.5 4.8-10.5 10.5s4.8 10.5 10.5 10.5H772c5.7 0 10.5-4.8 10.5-10.5s-4.8-10.5-10.5-10.5h-33c-16.6 0-30-13.4-30-30s13.4-30 30-30h33c38.9 0 70.5 31.6 70.5 70.5s-31.7 70.5-70.6 70.5z" fill="#8a8a8a" p-id="3636"></path></svg>