<?xml version="1.0" standalone="no"?><!DOCTYPE svg PUBLIC "-//W3C//DTD SVG 1.1//EN" "http://www.w3.org/Graphics/SVG/1.1/DTD/svg11.dtd"><svg t="1565801274740" class="icon" viewBox="0 0 1024 1024" version="1.1" xmlns="http://www.w3.org/2000/svg" p-id="2731" xmlns:xlink="http://www.w3.org/1999/xlink" width="128" height="128"><defs><style type="text/css"></style></defs><path d="M555.065 385.06l-37.263 38.792-33.586 34.965c-10.118 10.538-38.401 39.246-45.15 46.43-6.749 7.183-11.044 11.732-12.88 13.65-4.295 4.469-7.593 8.54-9.893 12.213-2.3 3.674-4.374 7.742-6.211 12.211-1.534 2.877-3.527 8.144-5.98 15.81-2.455 7.66-4.985 16.04-7.594 25.142-2.606 9.1-5.06 17.881-7.359 26.342-2.302 8.459-3.757 14.924-4.37 19.399-1.227 8.299-0.463 14.207 2.299 17.72 2.76 3.51 8.282 4.788 16.561 3.83 3.989-0.638 10.048-2.076 18.176-4.312 8.128-2.234 16.714-4.867 25.76-7.9a626.653 626.653 0 0 0 25.997-9.338c8.282-3.196 14.566-5.909 18.86-8.148 4.295-1.912 8.435-4.466 12.423-7.661 3.988-3.192 7.514-6.224 10.582-9.1 1.227-0.955 5.06-4.788 11.498-11.493 6.443-6.706 14.574-15.248 24.387-25.626 9.812-10.374 40.706-41.638 52.972-54.092l36.804-38.796 96.063-101.553-86.772-87.789-95.324 99.304z m0 0" fill="#8a8a8a" p-id="2732"></path><path d="M765.945 440.307v232.649-0.534 18.924c0 49.035-39.908 88.923-88.92 88.923H346.975c-49.013 0-88.92-39.888-88.92-88.923V349.738v1.308-18.39c0-49.036 39.907-88.92 88.92-88.92h217.672l60.219-50.78h-19.848v-0.033H346.976c-74.77 0-136.032 59.052-139.565 132.984h-0.167v372.188h0.167c3.534 73.932 64.796 132.984 139.565 132.984h330.05c74.768 0 136.03-59.052 139.564-132.984h0.167V390.398l-50.812 49.91z m0 0M753.896 212.97c-3.273-0.61-6.502-0.892-9.633-0.848 0.467 0 0.936 0 1.406 0.016 2.79 0.099 5.53 0.377 8.227 0.832z m0 0" fill="#8a8a8a" p-id="2733"></path><path d="M808.71 277.73c0.501-8.976-1.873-18.833-6.897-28.254-3.407-6.387-8.02-12.574-13.79-18.143-10.326-9.97-22.497-16.195-34.127-18.358a62.675 62.675 0 0 0-8.226-0.833c-0.467-0.02-0.936-0.016-1.406-0.02-5.087-0.028-10.256 0.77-15.498 2.406-5.733 1.793-11.27 4.872-16.622 9.247-4.202 3.577-9.457 8.453-15.76 14.617a1831.267 1831.267 0 0 1-16.336 15.81l86.33 87.752c2.673-2.385 5.538-5.17 8.597-8.354a505.205 505.205 0 0 1 9.459-9.546c3.625-3.577 7.733-7.753 12.318-12.526 4.203-4.773 7.259-9.748 9.171-14.917 1.909-5.17 2.865-10.341 2.865-15.513a76.4 76.4 0 0 0-0.078-3.368z m0 0" fill="#8a8a8a" p-id="2734"></path></svg>