<?xml version="1.0" standalone="no"?><!DOCTYPE svg PUBLIC "-//W3C//DTD SVG 1.1//EN" "http://www.w3.org/Graphics/SVG/1.1/DTD/svg11.dtd"><svg t="1567602705086" class="icon" viewBox="0 0 1024 1024" version="1.1" xmlns="http://www.w3.org/2000/svg" p-id="2019" xmlns:xlink="http://www.w3.org/1999/xlink" width="128" height="128"><defs><style type="text/css"></style></defs><path d="M902.8 820.4L717.3 627.8l3.7-5.5c39.8-59.1 60.8-128.2 60.9-199.6 0-197.7-160.8-358.5-358.5-358.5S64.9 225 64.9 422.7c0 95.8 37.3 185.8 105 253.5 67.7 67.7 157.7 105 253.5 105 56.6-0.1 110.8-13 161.2-38.4v-6.4l202.3 199.4c15.4 15.5 36 24 57.9 24s42.4-8.5 57.9-24c31.5-31.8 31.6-83.5 0.1-115.4z m-481.6-96.6c-167.2 0-303.3-136-303.3-303.3 0-167.2 136.1-303.3 303.3-303.3 167 0.2 303.1 136.2 303.3 303.3 0 167.3-136.1 303.3-303.3 303.3z m435.2 182.9c-3.7 1.5-7.7 2.3-11.7 2.3-8.4 0-16.5-3.5-22.3-9.5l-189-186.3 7.5-5.7c13.6-10.4 26.5-21.8 38.4-33.9l5.9-6L866.7 856c5.8 5.7 9.1 13.7 9 21.9 0.1 12.7-7.5 24-19.3 28.8z" fill="#6B400D" p-id="2020"></path><path d="M342.1 606c-54.7-30.6-87.3-70.5-112.5-137.8l-1.7-4c-3.7-7.1-11.2-11.5-19.6-11.4-2.3 0.1-4.4 0.5-6.4 1.3-9.5 3.6-15.1 13.4-13.4 23.7l1.7 5.5c28.2 75 66.9 122.1 129.3 157.6 0.1 0.1 8.6 5.2 11.8 5.2l3.2 0.1h0.1c2.1-0.1 4.1-0.5 6.1-1.2 10.8-4.1 16.3-16.3 12.2-27.2-2-5.5-6-9.7-10.8-11.8zM196.8 431.7c5.7-2 10.4-6.1 13.1-11.6 2.7-5.5 3-11.7 1-17.5-3.2-9.4-12.1-15.5-22-15.4-2.4 0-4.8 0.5-7.1 1.3-11.9 4.1-18.2 17.1-14.1 29 3.2 9.4 12.1 15.6 22 15.4 2.4 0 4.8-0.5 7.1-1.2z" fill="#6B400D" p-id="2021"></path><path d="M685.1 667.5l-5.9 6c-11.9 12.2-24.8 23.6-38.4 33.9l-7.5 5.7 189 186.3c5.8 6 13.9 9.5 22.3 9.5 4 0 7.9-0.8 11.7-2.3 11.8-4.8 19.4-16.1 19.3-28.8 0-8.2-3.3-16.2-9-21.9L685.1 667.5z" fill="#FFD524" p-id="2022"></path></svg>