<?xml version="1.0" standalone="no"?><!DOCTYPE svg PUBLIC "-//W3C//DTD SVG 1.1//EN" "http://www.w3.org/Graphics/SVG/1.1/DTD/svg11.dtd"><svg t="1567344826130" class="icon" viewBox="0 0 1024 1024" version="1.1" xmlns="http://www.w3.org/2000/svg" p-id="1451" xmlns:xlink="http://www.w3.org/1999/xlink" width="128" height="128"><defs><style type="text/css"></style></defs><path d="M411.704795 1024a118.442264 118.442264 0 0 1-83.797902-34.644362l-293.144605-293.144605a118.442264 118.442264 0 0 1 0-167.595804L528.07432 35.303197A118.442264 118.442264 0 0 1 624.900871 0.658835L888.434909 30.269401a118.442264 118.442264 0 0 1 104.525299 104.525299l29.610566 263.830144a118.442264 118.442264 0 0 1-33.756046 96.826551L495.502697 989.355638a118.442264 118.442264 0 0 1-83.797902 34.644362zM611.576116 59.879967a59.221132 59.221132 0 0 0-41.750898 17.470234L76.809292 570.662233a59.221132 59.221132 0 0 0 0 83.501796l293.144605 293.144605a59.221132 59.221132 0 0 0 83.501796 0L947.656042 453.996602a59.221132 59.221132 0 0 0 17.174128-48.265222l-29.610566-263.830145A59.221132 59.221132 0 0 0 882.21669 89.490533l-263.830144-29.610566z" fill="#6B400D" p-id="1452"></path><path d="M194.659345 578.064874L496.983225 276.0371a45.304166 45.304166 0 0 1 43.527533-8.88317l129.990385 29.610566a79.652423 79.652423 0 0 1 55.96397 56.260076l31.683305 129.990385a45.304166 45.304166 0 0 1-10.067592 43.527532L446.053052 829.754686a59.221132 59.221132 0 0 1-79.356318-10.659804l-161.377585-161.67369a59.221132 59.221132 0 0 1-10.659804-79.356318z" fill="#FFC824" p-id="1453"></path><path d="M681.160947 490.713704A148.052831 148.052831 0 0 1 540.806863 296.764496a29.610566 29.610566 0 0 1 56.260076 18.654657 88.831698 88.831698 0 1 0 173.221812 27.833932 88.831698 88.831698 0 0 0-76.099155-88.831698 29.610566 29.610566 0 0 1 8.587064-59.221133 148.052831 148.052831 0 0 1 83.205691 251.097601 148.052831 148.052831 0 0 1-104.821404 44.415849z" fill="#6B400D" p-id="1454"></path></svg>